<?xml version="1.0" encoding="UTF-8" standalone="no"?>
<svg
   xmlns:dc="http://purl.org/dc/elements/1.1/"
   xmlns:cc="http://creativecommons.org/ns#"
   xmlns:rdf="http://www.w3.org/1999/02/22-rdf-syntax-ns#"
   xmlns:svg="http://www.w3.org/2000/svg"
   xmlns="http://www.w3.org/2000/svg"
   xmlns:sodipodi="http://sodipodi.sourceforge.net/DTD/sodipodi-0.dtd"
   xmlns:inkscape="http://www.inkscape.org/namespaces/inkscape"
   height="25px"
   version="1.1"
   viewBox="0 0 25 25"
   width="25px"
   id="svg3689"
   sodipodi:docname="3LinesMenuIconWhite.svg"
   inkscape:version="0.92.1 r15371">
  <metadata
     id="metadata3693">
    <rdf:RDF>
      <cc:Work
         rdf:about="">
        <dc:format>image/svg+xml</dc:format>
        <dc:type
           rdf:resource="http://purl.org/dc/dcmitype/StillImage" />
        <dc:title />
      </cc:Work>
    </rdf:RDF>
  </metadata>
  <sodipodi:namedview
     pagecolor="#ffffff"
     bordercolor="#666666"
     borderopacity="1"
     objecttolerance="10"
     gridtolerance="10"
     guidetolerance="10"
     inkscape:pageopacity="0"
     inkscape:pageshadow="2"
     inkscape:window-width="1920"
     inkscape:window-height="1017"
     id="namedview3691"
     showgrid="false"
     inkscape:zoom="16.36"
     inkscape:cx="12.31931"
     inkscape:cy="18.758271"
     inkscape:window-x="1072"
     inkscape:window-y="166"
     inkscape:window-maximized="1"
     inkscape:current-layer="TabBar-Icons" />
  <desc
     id="desc3682" />
  <defs
     id="defs3684" />
  <g
     id="TabBar-Icons"
     stroke-width="1"
     stroke="none"
     fill-rule="evenodd"
     fill="none">
    <g
       id="Hamburger-Round"
       fill="#000000">
      <path
         d="M0,4 C0,2.8954305 0.889763236,2 2.00359486,2 L22.9964051,2 C24.10296,2 25,2.88772964 25,4 C25,5.1045695 24.1102368,6 22.9964051,6 L2.00359486,6 C0.897039974,6 0,5.11227036 0,4 L0,4 Z M0,12 C0,10.8954305 0.889763236,10 2.00359486,10 L22.9964051,10 C24.10296,10 25,10.8877296 25,12 C25,13.1045695 24.1102368,14 22.9964051,14 L2.00359486,14 C0.897039974,14 0,13.1122704 0,12 L0,12 Z M0,20 C0,18.8954305 0.889763236,18 2.00359486,18 L22.9964051,18 C24.10296,18 25,18.8877296 25,20 C25,21.1045695 24.1102368,22 22.9964051,22 L2.00359486,22 C0.897039974,22 0,21.1122704 0,20 L0,20 Z"
         id="Hamburger" />
    </g>
    <path
       style="fill:#ffffff;stroke-width:0.03056235"
       d="M 1.504142,5.9163004 C 0.81782463,5.7364859 0.25785785,5.17936 0.07631926,4.4957213 0.01297763,4.2571892 0.01250769,3.7591277 0.07539648,3.5177262 0.25556586,2.8261377 0.80090798,2.2741788 1.4999989,2.0758386 c 0.188123,-0.053373 0.6409449,-0.055667 10.9847201,-0.055667 8.962948,0 10.816952,0.00699 10.956601,0.04133 0.09245,0.022732 0.278118,0.09417 0.412592,0.1587513 0.630008,0.3025625 1.037855,0.8752566 1.112462,1.5621055 0.107095,0.9859453 -0.520016,1.8891915 -1.482556,2.1353679 -0.232406,0.059439 -0.383767,0.060246 -10.996347,0.058586 C 1.9997243,5.9746711 1.7211255,5.9731501 1.504142,5.9163004 Z"
       id="path3695"
       inkscape:connector-curvature="0" />
    <path
       style="fill:#ffffff;stroke-width:0.03056235"
       d="M 1.5433985,13.927519 C 0.96514432,13.783422 0.51495095,13.432139 0.24661467,12.915648 0.08596895,12.606438 0.02440732,12.352423 0.02440732,11.998778 c 0,-0.354244 0.06156367,-0.607636 0.22328724,-0.919035 C 0.48106103,10.630394 0.89478444,10.27825 1.384031,10.11254 L 1.6350856,10.02751 H 12.5 23.364914 l 0.251055,0.08503 c 0.489246,0.16571 0.90297,0.517854 1.136336,0.967203 0.161836,0.311615 0.221119,0.558014 0.221119,0.919035 0,0.36042 -0.05929,0.607452 -0.220039,0.91687 -0.273607,0.526638 -0.743824,0.886288 -1.333379,1.019849 -0.201196,0.04558 -1.134988,0.04964 -10.94132,0.04758 -10.0910438,-0.0021 -10.7339283,-0.0054 -10.9352875,-0.05556 z"
       id="path3697"
       inkscape:connector-curvature="0" />
    <path
       style="fill:#ffffff;stroke-width:0.03056235"
       d="M 1.6202529,21.945766 C 0.95891767,21.826134 0.37249505,21.319583 0.13368549,20.66167 -0.25954877,19.578322 0.3883982,18.368267 1.5161822,18.079829 1.7485228,18.020406 1.9027427,18.01956 12.5,18.01956 c 10.597257,0 10.751477,8.46e-4 10.983818,0.06027 0.313956,0.0803 0.616437,0.2437 0.853884,0.461277 1.018817,0.93356 0.786683,2.611238 -0.445884,3.222496 -0.190528,0.09449 -0.361949,0.154184 -0.526904,0.183491 -0.356709,0.06338 -21.3940761,0.06209 -21.7446611,-0.0013 z"
       id="path3699"
       inkscape:connector-curvature="0" />
  </g>
</svg>
