<?xml version="1.0" encoding="UTF-8" standalone="no"?>
<svg
   xmlns:dc="http://purl.org/dc/elements/1.1/"
   xmlns:cc="http://creativecommons.org/ns#"
   xmlns:rdf="http://www.w3.org/1999/02/22-rdf-syntax-ns#"
   xmlns:svg="http://www.w3.org/2000/svg"
   xmlns="http://www.w3.org/2000/svg"
   xmlns:sodipodi="http://sodipodi.sourceforge.net/DTD/sodipodi-0.dtd"
   xmlns:inkscape="http://www.inkscape.org/namespaces/inkscape"
   height="512px"
   style="enable-background:new 0 0 512 512;"
   version="1.1"
   viewBox="0 0 512 512"
   width="512px"
   xml:space="preserve"
   id="svg3729"
   sodipodi:docname="locationIconWhite.svg"
   inkscape:version="0.92.1 r15371"><metadata
     id="metadata3735"><rdf:RDF><cc:Work
         rdf:about=""><dc:format>image/svg+xml</dc:format><dc:type
           rdf:resource="http://purl.org/dc/dcmitype/StillImage" /><dc:title></dc:title></cc:Work></rdf:RDF></metadata><defs
     id="defs3733" /><sodipodi:namedview
     pagecolor="#ffffff"
     bordercolor="#666666"
     borderopacity="1"
     objecttolerance="10"
     gridtolerance="10"
     guidetolerance="10"
     inkscape:pageopacity="0"
     inkscape:pageshadow="2"
     inkscape:window-width="1920"
     inkscape:window-height="1017"
     id="namedview3731"
     showgrid="false"
     inkscape:zoom="1.3037281"
     inkscape:cx="304.64936"
     inkscape:cy="275.73733"
     inkscape:window-x="1072"
     inkscape:window-y="166"
     inkscape:window-maximized="1"
     inkscape:current-layer="svg3729" /><g
     id="layer"><g
       id="g3713"><g
         id="g3703"><path
           d="M256,477c-51.068,0-99.278-4.114-135.749-11.586C78.363,456.833,58,445.249,58,430c0-13.464,15.828-24.016,48.387-32.259     c27.373-6.93,65.458-11.82,107.24-13.769c4.393-0.2,8.158,3.205,8.364,7.618c0.206,4.414-3.205,8.158-7.619,8.364     c-40.741,1.9-77.696,6.622-104.059,13.297C76.133,421.905,74,429.925,74,430c0,1.906,8.802,11.41,49.462,19.74     C158.908,457.001,205.978,461,256,461s97.092-3.999,132.538-11.26C429.198,441.41,438,431.906,438,430     c0-0.075-2.134-8.095-36.313-16.748c-26.362-6.675-63.318-11.396-104.06-13.297c-4.413-0.206-7.824-3.95-7.618-8.364     c0.206-4.413,3.923-7.825,8.364-7.618c41.782,1.948,79.867,6.839,107.24,13.769C438.173,405.984,454,416.536,454,430     c0,15.249-20.362,26.833-62.251,35.414C355.278,472.886,307.068,477,256,477z"
           id="path3701" /></g><g
         id="g3707"><path
           d="M256,439c-3.198,0-6.088-1.904-7.351-4.842C244.54,424.592,148,199.228,148,143c0-59.551,48.449-108,108-108     c59.552,0,108,48.449,108,108c0,56.228-96.54,281.592-100.649,291.158C262.088,437.096,259.197,439,256,439z M256,51     c-50.729,0-92,41.271-92,92c0,44.362,69.002,212.618,92,267.462c22.998-54.844,92-223.1,92-267.462C348,92.271,306.729,51,256,51     z"
           id="path3705" /></g><g
         id="g3711"><path
           d="M256,194c-31.981,0-58-26.019-58-58s26.019-58,58-58s58,26.019,58,58S287.981,194,256,194z M256,94     c-23.159,0-42,18.841-42,42s18.841,42,42,42c23.159,0,42-18.841,42-42S279.159,94,256,94z"
           id="path3709" /></g></g></g><g
     id="layer_copy"><g
       id="g3718"><path
         d="M256,477c-51.068,0-99.278-4.114-135.749-11.586C78.363,456.833,58,445.249,58,430c0-13.464,15.828-24.016,48.387-32.259    c27.373-6.93,65.458-11.82,107.24-13.769c4.393-0.2,8.158,3.205,8.364,7.618c0.206,4.414-3.205,8.158-7.619,8.364    c-40.741,1.9-77.696,6.622-104.059,13.297C76.133,421.905,74,429.925,74,430c0,1.906,8.802,11.41,49.462,19.74    C158.908,457.001,205.978,461,256,461s97.092-3.999,132.538-11.26C429.198,441.41,438,431.906,438,430    c0-0.075-2.134-8.095-36.313-16.748c-26.362-6.675-63.318-11.396-104.06-13.297c-4.413-0.206-7.824-3.95-7.618-8.364    c0.206-4.413,3.923-7.825,8.364-7.618c41.782,1.948,79.867,6.839,107.24,13.769C438.173,405.984,454,416.536,454,430    c0,15.249-20.362,26.833-62.251,35.414C355.278,472.886,307.068,477,256,477z"
         id="path3716" /></g><g
       id="g3722"><path
         d="M256,439c-3.198,0-6.088-1.904-7.351-4.842C244.54,424.592,148,199.228,148,143c0-59.551,48.449-108,108-108    c59.552,0,108,48.449,108,108c0,56.228-96.54,281.592-100.649,291.158C262.088,437.096,259.197,439,256,439z M256,51    c-50.729,0-92,41.271-92,92c0,44.362,69.002,212.618,92,267.462c22.998-54.844,92-223.1,92-267.462C348,92.271,306.729,51,256,51z    "
         id="path3720" /></g><g
       id="g3726"><path
         d="M256,194c-31.981,0-58-26.019-58-58s26.019-58,58-58s58,26.019,58,58S287.981,194,256,194z M256,94    c-23.159,0-42,18.841-42,42s18.841,42,42,42c23.159,0,42-18.841,42-42S279.159,94,256,94z"
         id="path3724" /></g></g><path
     style="fill:#ffffff;stroke-width:0.76703107"
     d="m 244.71073,192.66296 c -29.75092,-6.23541 -49.98723,-34.44788 -45.92381,-64.02471 3.23823,-23.57035 19.85157,-42.379972 42.86184,-48.528151 8.10914,-2.166703 20.52807,-2.153103 28.71118,0.03144 16.57186,4.423986 29.90361,15.269831 37.29572,30.341361 4.50138,9.17773 5.72381,14.58499 5.73668,25.37541 0.0134,11.18346 -1.20754,16.38225 -6.21442,26.46257 -3.02239,6.08495 -4.76287,8.43046 -10.55251,14.2208 -7.58202,7.58296 -14.50513,11.78165 -24.57487,14.90405 -6.91515,2.14424 -20.11316,2.73184 -27.33981,1.21723 z m 24.16747,-16.55911 c 16.83996,-5.20133 28.94875,-21.62762 29.06554,-39.42911 0.0793,-12.09101 -3.98698,-22.06117 -12.38158,-30.35839 -8.42003,-8.322341 -17.88976,-12.261239 -29.47795,-12.261239 -11.76017,0 -21.37716,3.977634 -29.67202,12.272499 -8.45441,8.45441 -12.2725,17.64168 -12.2725,29.5307 0,11.19422 3.48646,20.29183 10.88516,28.40382 11.34177,12.4352 27.66297,16.84242 43.85335,11.84172 z"
     id="path3737"
     inkscape:connector-curvature="0" /><path
     style="fill:#ffffff;stroke-width:0.76703107"
     d="m 251.09823,436.88479 c -0.92526,-0.86201 -2.23068,-2.8467 -2.90094,-4.41043 -6.53368,-15.24317 -24.51237,-58.76585 -31.75061,-76.86165 -36.25491,-90.63834 -58.62467,-156.29792 -66.11451,-194.05886 -2.38278,-12.01305 -2.37181,-28.3637 0.0266,-39.64662 9.4017,-44.228764 43.24549,-77.240732 87.17537,-85.032762 10.11408,-1.793978 27.4092,-1.816474 36.81749,-0.04789 19.92425,3.745387 36.13662,11.41206 51.61881,24.410035 27.05306,22.71221 41.66219,60.146267 36.66657,93.953427 -4.98786,33.75464 -27.78566,101.87298 -66.82063,199.65564 -18.52652,46.40899 -33.12394,80.7636 -34.95435,82.26408 -2.3164,1.89888 -7.61517,1.77679 -9.7638,-0.22497 z m 13.26818,-45.98865 c 45.25591,-110.14727 72.76623,-187.49555 81.43337,-228.95878 4.42896,-21.18794 1.98166,-41.45596 -7.22408,-59.82842 -13.04198,-26.028679 -38.22072,-44.899694 -66.48367,-49.828341 -8.5409,-1.489408 -23.60364,-1.516219 -31.97194,-0.05691 -31.11982,5.426842 -57.94773,27.228154 -69.69495,56.636591 -5.7783,14.46561 -7.71126,28.80046 -5.82848,43.22406 4.5697,35.00768 36.23305,126.07238 82.9019,238.42829 3.67981,8.8592 7.0117,16.94048 7.40419,17.95837 0.42064,1.0909 0.98954,1.56327 1.38566,1.15055 0.36962,-0.3851 4.00472,-8.81153 8.078,-18.72541 z"
     id="path3739"
     inkscape:connector-curvature="0" /><path
     style="fill:#ffffff;stroke-width:0.76703107"
     d="m 226.79571,476.34533 c -72.43995,-3.15246 -122.8382,-11.39906 -149.522596,-24.46618 -23.970176,-11.738 -25.310207,-29.81416 -3.129172,-42.21053 17.961469,-10.03818 56.770128,-18.58085 104.328808,-22.96516 20.57684,-1.89693 36.28798,-2.72839 38.14392,-2.01864 3.14693,1.20344 4.80982,3.79944 4.80982,7.50881 0,2.79311 -0.39274,3.77534 -2.09496,5.23953 -2.43029,2.09045 -2.6777,2.1259 -26.41767,3.78518 -57.89925,4.0468 -105.854115,14.77747 -116.880574,26.15388 l -2.554212,2.63528 2.2563,2.37851 c 5.040482,5.31348 23.107546,12.20436 43.792006,16.7025 78.53984,17.07967 213.53843,15.83212 283.78833,-2.62254 15.51612,-4.07608 28.00379,-9.29015 32.68772,-13.64833 3.07898,-2.86484 2.89331,-3.39727 -2.64884,-7.59587 -9.06237,-6.86544 -37.21965,-14.76196 -68.8768,-19.31604 -18.5153,-2.66354 -51.573,-5.8 -61.23105,-5.80949 -6.4711,-0.006 -9.92027,-1.20474 -11.71348,-4.06971 -2.58589,-4.13141 -0.77969,-9.61489 3.73585,-11.34171 3.10243,-1.18643 40.95722,1.75223 66.06993,5.12899 51.70631,6.95264 83.60795,18.5112 90.5244,32.79866 2.10573,4.34987 2.10395,10.45833 -0.005,14.81347 -9.12533,18.85098 -61.89923,32.75138 -143.75783,37.8652 -12.57371,0.7855 -70.28504,1.53378 -81.30529,1.05419 z"
     id="path3741"
     inkscape:connector-curvature="0" /></svg>