<?xml version="1.0" encoding="UTF-8" standalone="no"?>
<!-- Generator: Adobe Illustrator 16.0.0, SVG Export Plug-In . SVG Version: 6.00 Build 0)  -->

<svg
   xmlns:dc="http://purl.org/dc/elements/1.1/"
   xmlns:cc="http://creativecommons.org/ns#"
   xmlns:rdf="http://www.w3.org/1999/02/22-rdf-syntax-ns#"
   xmlns:svg="http://www.w3.org/2000/svg"
   xmlns="http://www.w3.org/2000/svg"
   xmlns:sodipodi="http://sodipodi.sourceforge.net/DTD/sodipodi-0.dtd"
   xmlns:inkscape="http://www.inkscape.org/namespaces/inkscape"
   version="1.1"
   id="Layer_1"
   x="0px"
   y="0px"
   width="512px"
   height="512px"
   viewBox="0 0 512 512"
   enable-background="new 0 0 512 512"
   xml:space="preserve"
   sodipodi:docname="mapIcon.svg"
   inkscape:version="0.92.1 r15371"><metadata
     id="metadata17"><rdf:RDF><cc:Work
         rdf:about=""><dc:format>image/svg+xml</dc:format><dc:type
           rdf:resource="http://purl.org/dc/dcmitype/StillImage" /><dc:title></dc:title></cc:Work></rdf:RDF></metadata><defs
     id="defs15" /><sodipodi:namedview
     pagecolor="#ffffff"
     bordercolor="#666666"
     borderopacity="1"
     objecttolerance="10"
     gridtolerance="10"
     guidetolerance="10"
     inkscape:pageopacity="0"
     inkscape:pageshadow="2"
     inkscape:window-width="1920"
     inkscape:window-height="1017"
     id="namedview13"
     showgrid="false"
     inkscape:zoom="1.5976562"
     inkscape:cx="256"
     inkscape:cy="256"
     inkscape:window-x="1072"
     inkscape:window-y="166"
     inkscape:window-maximized="1"
     inkscape:current-layer="Layer_1" /><path
     d="M416,48c-44.188,0-80,35.813-80,80c0,11.938,2.625,23.281,7.313,33.438L416,304l72.688-142.563  C493.375,151.281,496,139.938,496,128C496,83.813,460.188,48,416,48z M416,176c-26.5,0-48-21.5-48-48s21.5-48,48-48s48,21.5,48,48  S442.5,176,416,176z M439.938,327.469l29.125,58.219l-73.844,36.906l-24.75-123.813l4.156-4.156l0.438-0.438l-15.25-30L352,272  l-96-64l-96,64l-64-64L0,400l128,64l128-64l128,64l128-64l-54-107.969L439.938,327.469z M116.75,422.594l-73.813-36.906L104.75,262  l32.625,32.625l4.156,4.156L116.75,422.594z M240,372.219l-89.5,44.75l23.125-115.594l4.125-2.75l62.25-41.5V372.219z M272,372.219  V257.125l62.25,41.5l4.094,2.75l23.125,115.594L272,372.219z"
     id="path10" /><path
     style="fill:#ffffff;stroke-width:0.6259169"
     d="M 64.156479,431.84214 C 29.386797,414.43855 0.85289373,400.12066 0.74780517,400.02461 0.64271654,399.92856 22.048444,356.86545 48.31609,304.3288 l 47.759352,-95.52117 31.703648,31.69908 c 21.74124,21.7381 31.999,31.58573 32.64354,31.3384 0.51695,-0.19837 22.09109,-14.46335 47.94254,-31.69996 25.85145,-17.2366 47.28712,-31.33928 47.63483,-31.33928 0.34771,0 21.78338,14.10268 47.63483,31.33928 25.85145,17.23661 47.42014,31.4995 47.93042,31.69531 0.58469,0.22437 2.2714,-0.97359 4.56125,-3.23954 l 3.63347,-3.59556 6.59556,12.74133 c 9.1671,17.70904 8.53185,15.82945 6.17262,18.26356 -1.09195,1.1266 -1.98536,2.60238 -1.98536,3.27951 0,1.47223 24.27669,123.02834 24.6441,123.39574 0.14018,0.14019 16.90423,-8.07074 37.25344,-18.2465 l 36.99857,-18.50137 -14.57303,-29.26026 -14.57303,-29.26026 8.46971,-16.6953 c 4.65835,-9.18242 8.6651,-16.8888 8.9039,-17.1253 0.31948,-0.31639 53.70763,105.32293 53.70763,106.27148 0,0.0882 -28.66054,14.48846 -63.69009,32.00054 L 383.99389,463.70868 319.99695,431.70899 256,399.7093 192.15769,431.63167 c -35.11326,17.5573 -64.05409,31.90684 -64.31295,31.88786 -0.25887,-0.019 -28.918579,-14.27379 -63.688261,-31.67739 z m 52.889971,-9.13828 c 0,-0.0911 5.49243,-27.6195 12.20538,-61.17428 6.71296,-33.55477 12.20538,-61.57432 12.20538,-62.26564 0,-0.81205 -6.36806,-7.62787 -17.99106,-19.25605 -9.89509,-9.8995 -18.20385,-17.99909 -18.46392,-17.99909 -0.26007,0 -14.415478,27.8841 -31.456453,61.96468 l -30.983587,61.96467 36.772692,18.43134 c 33.659078,16.87072 37.711568,18.84094 37.711568,18.33437 z m 78.55141,-27.84216 44.75422,-22.37449 v -57.74287 c 0,-31.75858 -0.14284,-57.74287 -0.31742,-57.74287 -0.23211,0 -65.44827,43.25952 -66.50985,44.11765 -0.1354,0.10945 -23.30476,115.38679 -23.30476,115.95099 0,0.4406 3.53662,-1.29026 45.37781,-22.20841 z m 166.18209,22.20841 c 0,-0.5642 -23.16936,-115.84154 -23.30476,-115.95099 -1.06158,-0.85813 -66.27774,-44.11765 -66.50985,-44.11765 -0.17458,0 -0.31742,25.98429 -0.31742,57.74288 v 57.74287 l 44.59658,22.33945 c 40.84747,20.46144 45.53545,22.75145 45.53545,22.24344 z"
     id="path19"
     inkscape:connector-curvature="0" /><path
     style="fill:#ffffff;stroke-width:0.6259169"
     d="m 379.2117,231.1229 c -20.19054,-39.64258 -37.43798,-74.12408 -38.32764,-76.62554 -4.09022,-11.50043 -5.57912,-28.01396 -3.56854,-39.57902 4.30797,-24.779857 20.508,-46.721833 42.80629,-57.978572 6.93254,-3.49972 14.80286,-6.151972 21.95803,-7.39973 7.06966,-1.232846 20.51475,-1.250185 27.48062,-0.03544 28.82272,5.026263 52.76061,25.689514 62.03255,53.546682 5.78942,17.39407 5.29805,37.06732 -1.34176,53.72073 -1.24406,3.12023 -73.55602,145.7 -74.20382,146.30998 -0.0691,0.0651 -16.6452,-32.3165 -36.83573,-71.95909 z m 46.28168,-55.85624 c 20.50558,-4.2143 35.69618,-20.65696 38.37391,-41.53679 1.27971,-9.97859 -1.14579,-21.59011 -6.36992,-30.49457 -3.44639,-5.874331 -12.48481,-14.48003 -18.41669,-17.534964 -7.6513,-3.940447 -12.65043,-5.286178 -20.96821,-5.644498 -14.68825,-0.632751 -25.73416,3.687743 -36.32268,14.207243 -9.19487,9.134929 -13.77129,20.122449 -13.81717,33.173589 -0.0295,8.38675 1.29787,14.40114 4.76573,21.59414 5.58611,11.58664 15.22464,20.26117 27.13737,24.42324 8.27589,2.89141 17.27152,3.52791 25.61766,1.81261 z"
     id="path21"
     inkscape:connector-curvature="0" /></svg>